<?xml version="1.0" encoding="UTF-8" standalone="no"?>
<svg
   xmlns:dc="http://purl.org/dc/elements/1.1/"
   xmlns:cc="http://creativecommons.org/ns#"
   xmlns:rdf="http://www.w3.org/1999/02/22-rdf-syntax-ns#"
   xmlns:svg="http://www.w3.org/2000/svg"
   xmlns="http://www.w3.org/2000/svg"
   id="svg8"
   version="1.1"
   viewBox="0 0 43.920832 10.583334"
   height="40"
   width="166">
  <defs
     id="defs2" />
  <metadata
     id="metadata5">
    <rdf:RDF>
      <cc:Work
         rdf:about="">
        <dc:format>image/svg+xml</dc:format>
        <dc:type
           rdf:resource="http://purl.org/dc/dcmitype/StillImage" />
        <dc:title></dc:title>
      </cc:Work>
    </rdf:RDF>
  </metadata>
  <g
     transform="translate(0,-286.41665)"
     id="layer1">
    <g
       transform="matrix(0.66666668,0,0,0.66666668,-6.9305492,152.40161)"
       id="g844">
      <path
         style="fill:#0790b3;fill-opacity:1;stroke-width:0.3230876"
         d="m 61.378889,204.26297 v 5.389 c -0.215392,-0.29294 -0.512555,-0.5216 -0.891644,-0.6853 -0.370475,-0.1723 -0.758054,-0.25809 -1.16299,-0.25809 -0.534173,0 -1.012795,0.11173 -1.434964,0.33571 -0.422169,0.224 -0.753895,0.55173 -0.995136,0.98251 -0.241239,0.42217 -0.36158,0.92146 -0.36158,1.4987 0,0.56865 0.11233,1.07319 0.336341,1.51258 0.232623,0.43079 0.551075,0.76652 0.95601,1.00775 0.404935,0.24124 0.857005,0.36222 1.356715,0.36222 0.448016,0 0.857511,-0.0865 1.227985,-0.25873 0.379089,-0.17231 0.698173,-0.40899 0.956643,-0.71053 v 0.8399 h 1.214732 v -10.01572 z m -30.47246,4.44561 c -0.542788,0 -1.042065,0.12899 -1.498698,0.38746 -0.456629,0.24985 -0.818917,0.59486 -1.086004,1.03425 -0.25847,0.43079 -0.387449,0.90878 -0.387449,1.43434 0,0.54279 0.120341,1.02941 0.36158,1.4602 0.241237,0.43079 0.581606,0.77115 1.021005,1.021 0.448016,0.24124 0.969214,0.36222 1.563696,0.36222 0.310164,0 0.629245,-0.0519 0.956639,-0.15524 0.336011,-0.11197 0.646454,-0.26289 0.93077,-0.45245 l -0.555937,-0.89163 c -0.422169,0.31016 -0.857587,0.46506 -1.305602,0.46506 -0.336012,0 -0.637182,-0.0731 -0.904264,-0.2196 -0.258471,-0.15508 -0.465224,-0.36646 -0.620306,-0.63355 l 4.238631,-1.48607 c -0.172312,-0.73235 -0.495401,-1.30075 -0.969263,-1.70568 -0.465246,-0.41356 -1.046929,-0.62031 -1.744798,-0.62031 z m 13.63783,0 c -0.508324,0 -0.973671,0.12028 -1.395839,0.36158 -0.413552,0.23263 -0.745282,0.56898 -0.995136,1.00839 -0.241239,0.43079 -0.36158,0.9387 -0.36158,1.52457 0,0.58587 0.116337,1.09041 0.348961,1.51257 0.241239,0.42218 0.564326,0.74527 0.969263,0.96927 0.413551,0.21539 0.874262,0.32309 1.382588,0.32309 0.45663,0 0.866127,-0.10367 1.227985,-0.31047 0.361858,-0.21539 0.637736,-0.44806 0.827278,-0.69791 v 0.87902 h 1.201483 v -5.3505 h -1.111244 l -0.09024,0.85314 c -0.206776,-0.31879 -0.478647,-0.57738 -0.814659,-0.77553 -0.336011,-0.19816 -0.73223,-0.29722 -1.188862,-0.29722 z m 22.6338,0 c -0.542787,0 -1.042067,0.12899 -1.498697,0.38746 -0.456633,0.24985 -0.818917,0.59486 -1.086004,1.03425 -0.25847,0.43079 -0.387453,0.90878 -0.387453,1.43434 0,0.54279 0.120342,1.02941 0.361581,1.4602 0.241239,0.43079 0.581609,0.77115 1.021007,1.021 0.448013,0.24124 0.969212,0.36222 1.563693,0.36222 0.310164,0 0.629248,-0.0519 0.956644,-0.15524 0.33601,-0.11197 0.646452,-0.26289 0.930769,-0.45245 l -0.555936,-0.89163 c -0.422169,0.31016 -0.857588,0.46506 -1.305604,0.46506 -0.336012,0 -0.637181,-0.0731 -0.904267,-0.2196 -0.25847,-0.15508 -0.465221,-0.36646 -0.620303,-0.63355 l 4.23863,-1.48607 c -0.172309,-0.73235 -0.495396,-1.30075 -0.969262,-1.70568 -0.465246,-0.41356 -1.046929,-0.62031 -1.744798,-0.62031 z m -28.742804,0.0126 c -0.491094,0 -0.926513,0.11235 -1.305604,0.33634 -0.379089,0.21539 -0.662976,0.51655 -0.852522,0.90426 l -0.07761,-1.03361 h -1.086004 v 5.35049 h 1.202112 v -2.50707 c 0,-0.58587 0.154905,-1.06851 0.465071,-1.44759 0.310164,-0.37908 0.702377,-0.56856 1.17624,-0.56856 0.327394,0.009 0.572714,0.099 0.736414,0.27134 0.163695,0.17231 0.254111,0.40899 0.27134,0.71054 v 3.54134 h 1.214736 V 210.324 c -0.0087,-0.47387 -0.176167,-0.85743 -0.503565,-1.15037 -0.327394,-0.30155 -0.740894,-0.45245 -1.240604,-0.45245 z m 14.740869,0 c -0.491092,0 -0.926511,0.11235 -1.305603,0.33634 -0.379088,0.21539 -0.662975,0.51655 -0.85252,0.90426 l -0.07762,-1.03361 h -1.086004 v 5.35049 h 1.202112 v -2.50707 c 0,-0.58587 0.154905,-1.06851 0.465071,-1.44759 0.310164,-0.37908 0.702377,-0.56856 1.17624,-0.56856 0.327394,0.009 0.572714,0.099 0.736414,0.27134 0.163694,0.17231 0.254111,0.40899 0.271341,0.71054 v 3.54134 H 54.92029 V 210.324 c -0.0087,-0.47387 -0.176166,-0.85743 -0.503565,-1.15037 -0.327393,-0.30155 -0.740893,-0.45245 -1.240606,-0.45245 z m 17.206305,0.20699 2.972155,5.5051 h 0.06436 l 2.856042,-5.5051 H 74.93152 l -1.499325,3.41197 -1.615439,-3.41197 z m -39.566237,0.7364 c 0.353242,0 0.646402,0.0904 0.879025,0.27135 0.241241,0.18093 0.426072,0.41823 0.555307,0.71117 l -3.114135,1.15036 c -0.0087,-0.0689 -0.01325,-0.16798 -0.01325,-0.29721 0,-0.53417 0.159544,-0.9736 0.478322,-1.31822 0.31878,-0.34464 0.723642,-0.51745 1.214734,-0.51745 z m 28.740282,0 c 0.430782,0 0.814355,0.12498 1.150367,0.37483 0.336011,0.24124 0.55604,0.55569 0.659428,0.94339 v 1.00839 c -0.09477,0.42216 -0.306161,0.7579 -0.633555,1.00775 -0.318782,0.24986 -0.710994,0.37484 -1.17624,0.37484 -0.327396,0 -0.628566,-0.0818 -0.904266,-0.24547 -0.275704,-0.16371 -0.49573,-0.38773 -0.659428,-0.67204 -0.163697,-0.28433 -0.245469,-0.59878 -0.245469,-0.9434 0,-0.35325 0.08178,-0.66769 0.245469,-0.94339 0.163698,-0.28432 0.383724,-0.50435 0.659428,-0.65943 0.2757,-0.16369 0.57687,-0.24547 0.904266,-0.24547 z m 7.531347,0 c 0.353245,0 0.646404,0.0904 0.879027,0.27135 0.241237,0.18093 0.426072,0.41823 0.555307,0.71117 l -3.114138,1.15036 c -0.0087,-0.0689 -0.01325,-0.16798 -0.01325,-0.29721 0,-0.53417 0.159542,-0.9736 0.478322,-1.31822 0.318778,-0.34464 0.723639,-0.51745 1.214732,-0.51745 z m -22.31071,0.0391 c 0.422166,0 0.797099,0.12027 1.124494,0.36158 0.327397,0.23262 0.542787,0.53843 0.646174,0.91751 v 1.06013 c -0.08615,0.42218 -0.288901,0.75791 -0.607682,1.00776 -0.310164,0.24123 -0.685094,0.36221 -1.124492,0.36221 -0.327399,0 -0.628568,-0.0824 -0.904268,-0.2461 -0.275705,-0.17231 -0.49573,-0.40035 -0.659428,-0.68467 -0.163696,-0.28431 -0.24547,-0.59876 -0.24547,-0.94339 0,-0.35325 0.07776,-0.66768 0.232849,-0.94338 0.163699,-0.28433 0.379089,-0.50435 0.646176,-0.65943 0.2757,-0.15508 0.572867,-0.23222 0.891647,-0.23222 z"
         id="rect821" />
      <rect
         style="fill:#0790b3;fill-opacity:1;stroke-width:0.17591473"
         id="rect824"
         width="15.875"
         height="15.875"
         x="10.397911"
         y="201.02255"
         ry="3.8407276" />
      <path
         style="fill:#ffffff;fill-opacity:1;stroke-width:0.37634939"
         d="m 14.841054,203.51806 v 10.88399 h 1.459825 v -4.00385 h 1.611246 c 0.160573,0 0.280625,-0.005 0.360911,-0.0154 l 2.55947,4.01929 h 1.700922 l -2.739556,-4.38021 c 0.612192,-0.29104 1.063665,-0.71772 1.354711,-1.27973 0.30108,-0.56202 0.451326,-1.1792 0.451326,-1.85161 0,-0.71255 -0.165714,-1.31968 -0.496902,-1.82147 -0.331187,-0.51184 -0.787323,-0.89825 -1.369411,-1.15919 -0.582089,-0.26094 -1.244934,-0.39178 -1.987596,-0.39178 z m 1.459825,1.40028 h 1.686222 c 0.481728,0 0.878208,0.10532 1.189321,0.31608 0.321154,0.20071 0.55192,0.45702 0.692426,0.76813 0.15054,0.31112 0.225664,0.62708 0.225664,0.94823 0,0.5319 -0.175779,1.00351 -0.527041,1.41498 -0.34122,0.41148 -0.902677,0.61745 -1.685484,0.61745 h -1.581108 z"
         id="rect830" />
    </g>
  </g>
</svg>
