<?xml version="1.0" encoding="UTF-8" standalone="no"?>
<svg
   xmlns:dc="http://purl.org/dc/elements/1.1/"
   xmlns:cc="http://creativecommons.org/ns#"
   xmlns:rdf="http://www.w3.org/1999/02/22-rdf-syntax-ns#"
   xmlns:svg="http://www.w3.org/2000/svg"
   xmlns="http://www.w3.org/2000/svg"
   id="svg8"
   version="1.1"
   viewBox="0 0 43.920831 10.583334"
   height="40"
   width="166">
  <defs
     id="defs2" />
  <metadata
     id="metadata5">
    <rdf:RDF>
      <cc:Work
         rdf:about="">
        <dc:format>image/svg+xml</dc:format>
        <dc:type
           rdf:resource="http://purl.org/dc/dcmitype/StillImage" />
        <dc:title></dc:title>
      </cc:Work>
    </rdf:RDF>
  </metadata>
  <g
     transform="translate(0,-286.41664)"
     id="layer1">
    <g
       transform="translate(-19.299525,13.006209)"
       id="g2115">
      <path
         style="fill:#ffffff;fill-opacity:1;stroke-width:0.21539174"
         d="m 53.288233,275.5707 v 3.59266 c -0.143595,-0.19529 -0.341703,-0.34773 -0.594429,-0.45686 -0.246984,-0.11487 -0.50537,-0.17206 -0.775327,-0.17206 -0.356115,0 -0.675197,0.0745 -0.956643,0.2238 -0.281446,0.14934 -0.502596,0.36782 -0.663424,0.65501 -0.160826,0.28145 -0.241053,0.61431 -0.241053,0.99913 0,0.3791 0.07489,0.71546 0.224227,1.00839 0.155082,0.28719 0.367384,0.51101 0.63734,0.67183 0.269957,0.16083 0.571337,0.24148 0.904477,0.24148 0.298677,0 0.571674,-0.0577 0.818657,-0.17248 0.252726,-0.11488 0.465448,-0.27266 0.637762,-0.47369 v 0.55993 h 0.809821 v -6.67714 z m -20.314974,2.96374 c -0.361858,0 -0.69471,0.086 -0.999132,0.2583 -0.304419,0.16657 -0.545944,0.39658 -0.724002,0.6895 -0.172314,0.2872 -0.2583,0.60586 -0.2583,0.95623 0,0.36186 0.08023,0.68627 0.241054,0.97347 0.160824,0.28719 0.387737,0.5141 0.68067,0.68066 0.298677,0.16083 0.646142,0.24148 1.042464,0.24148 0.206776,0 0.419496,-0.0346 0.637759,-0.10349 0.224007,-0.0747 0.430969,-0.17526 0.620513,-0.30163 l -0.370624,-0.59442 c -0.281446,0.20677 -0.571725,0.31004 -0.870402,0.31004 -0.224008,0 -0.424788,-0.0487 -0.602842,-0.1464 -0.172314,-0.10339 -0.31015,-0.24431 -0.413538,-0.42237 l 2.825754,-0.99071 c -0.114874,-0.48824 -0.330267,-0.86717 -0.646175,-1.13712 -0.310164,-0.27571 -0.697953,-0.41354 -1.163199,-0.41354 z m 9.091887,0 c -0.338882,0 -0.649114,0.0802 -0.930559,0.24105 -0.275701,0.15509 -0.496855,0.37932 -0.663424,0.67226 -0.160826,0.28719 -0.241053,0.6258 -0.241053,1.01638 0,0.39058 0.07756,0.72694 0.23264,1.00838 0.160826,0.28145 0.376218,0.49685 0.646176,0.64618 0.2757,0.14359 0.582841,0.21539 0.921725,0.21539 0.30442,0 0.577418,-0.0691 0.818657,-0.20698 0.241238,-0.14359 0.425157,-0.2987 0.551518,-0.46527 v 0.58601 h 0.800989 v -3.567 h -0.740829 l -0.06016,0.56876 c -0.137851,-0.21252 -0.319098,-0.38492 -0.543106,-0.51702 -0.224008,-0.1321 -0.488154,-0.19814 -0.792574,-0.19814 z m 15.089201,0 c -0.361858,0 -0.694712,0.086 -0.999132,0.2583 -0.304422,0.16657 -0.545944,0.39658 -0.724002,0.6895 -0.172314,0.2872 -0.258302,0.60586 -0.258302,0.95623 0,0.36186 0.08023,0.68627 0.241054,0.97347 0.160826,0.28719 0.387739,0.5141 0.680671,0.68066 0.298675,0.16083 0.646141,0.24148 1.042462,0.24148 0.206776,0 0.419499,-0.0346 0.637763,-0.10349 0.224006,-0.0747 0.430968,-0.17526 0.620512,-0.30163 l -0.370624,-0.59442 c -0.281446,0.20677 -0.571725,0.31004 -0.870402,0.31004 -0.224008,0 -0.424788,-0.0487 -0.602845,-0.1464 -0.172313,-0.10339 -0.310147,-0.24431 -0.413535,-0.42237 l 2.825753,-0.99071 c -0.114873,-0.48824 -0.330264,-0.86717 -0.646175,-1.13712 -0.310164,-0.27571 -0.697952,-0.41354 -1.163198,-0.41354 z m -19.16187,0.008 c -0.327396,0 -0.617675,0.0749 -0.870403,0.22422 -0.252726,0.1436 -0.441984,0.34437 -0.568348,0.60284 l -0.05174,-0.68907 h -0.724003 v 3.56699 h 0.801408 v -1.67138 c 0,-0.39058 0.10327,-0.71234 0.310048,-0.96506 0.206776,-0.25272 0.468251,-0.37904 0.78416,-0.37904 0.218263,0.006 0.381809,0.066 0.490943,0.1809 0.10913,0.11487 0.169407,0.27266 0.180893,0.47369 v 2.36089 h 0.809824 v -2.63644 c -0.0058,-0.31591 -0.117445,-0.57162 -0.33571,-0.76691 -0.218263,-0.20103 -0.493929,-0.30163 -0.827069,-0.30163 z m 9.827246,0 c -0.327395,0 -0.617674,0.0749 -0.870402,0.22422 -0.252725,0.1436 -0.441983,0.34437 -0.568347,0.60284 l -0.05175,-0.68907 h -0.724003 v 3.56699 h 0.801408 v -1.67138 c 0,-0.39058 0.10327,-0.71234 0.310047,-0.96506 0.206776,-0.25272 0.468252,-0.37904 0.78416,-0.37904 0.218263,0.006 0.38181,0.066 0.490943,0.1809 0.109129,0.11487 0.169407,0.27266 0.180894,0.47369 v 2.36089 H 48.9825 v -2.63644 c -0.0058,-0.31591 -0.117444,-0.57162 -0.33571,-0.76691 -0.218262,-0.20103 -0.493928,-0.30163 -0.82707,-0.30163 z m 11.47087,0.13799 1.981437,3.67007 h 0.04291 l 1.904028,-3.67007 h -0.895644 l -0.99955,2.27465 -1.07696,-2.27465 z m -26.377492,0.49093 c 0.235495,0 0.430935,0.0603 0.586017,0.1809 0.160827,0.12062 0.284048,0.27882 0.370205,0.47412 l -2.07609,0.7669 c -0.0058,-0.0459 -0.0088,-0.11198 -0.0088,-0.19814 0,-0.35611 0.106363,-0.64906 0.318882,-0.87881 0.21252,-0.22976 0.482428,-0.34497 0.809822,-0.34497 z m 19.160189,0 c 0.287188,0 0.542903,0.0833 0.766911,0.24989 0.224007,0.16083 0.370693,0.37046 0.439619,0.62893 v 0.67226 c -0.06318,0.28144 -0.204108,0.50526 -0.42237,0.67183 -0.212522,0.16657 -0.473996,0.24989 -0.78416,0.24989 -0.218264,0 -0.419044,-0.0545 -0.602844,-0.16364 -0.183803,-0.10914 -0.330487,-0.25849 -0.439619,-0.44803 -0.109131,-0.18955 -0.163646,-0.39919 -0.163646,-0.62893 0,-0.2355 0.05452,-0.44513 0.163646,-0.62893 0.109132,-0.18955 0.255816,-0.33623 0.439619,-0.43962 0.1838,-0.10913 0.38458,-0.16365 0.602844,-0.16365 z m 5.020898,0 c 0.235497,0 0.430936,0.0603 0.586018,0.1809 0.160825,0.12062 0.284048,0.27882 0.370205,0.47412 l -2.076092,0.7669 c -0.0058,-0.0459 -0.0088,-0.11198 -0.0088,-0.19814 0,-0.35611 0.106362,-0.64906 0.318882,-0.87881 0.212518,-0.22976 0.482426,-0.34497 0.809821,-0.34497 z m -14.873807,0.0261 c 0.281444,0 0.531399,0.0802 0.749663,0.24105 0.218264,0.15508 0.361858,0.35896 0.430782,0.61168 v 0.70675 c -0.05743,0.28145 -0.1926,0.50527 -0.405121,0.67184 -0.206776,0.16082 -0.456729,0.24147 -0.749661,0.24147 -0.218266,0 -0.419046,-0.0549 -0.602846,-0.16406 -0.183803,-0.11488 -0.330486,-0.2669 -0.439618,-0.45645 -0.109131,-0.18954 -0.163647,-0.39917 -0.163647,-0.62893 0,-0.2355 0.05184,-0.44512 0.155233,-0.62892 0.109132,-0.18955 0.252726,-0.33623 0.430784,-0.43962 0.1838,-0.10338 0.381911,-0.15481 0.594431,-0.15481 z"
         id="rect821" />
      <rect
         style="fill:#ffffff;fill-opacity:1;stroke-width:0.11727649"
         id="rect824"
         width="10.583334"
         height="10.583334"
         x="19.300915"
         y="273.41043"
         ry="2.5604851" />
      <path
         style="fill:#0790b3;fill-opacity:1;stroke-width:0.25089961"
         d="m 22.263009,275.07409 v 7.25599 h 0.973217 v -2.66923 h 1.074164 c 0.107049,0 0.187083,-0.003 0.240607,-0.0103 l 1.706314,2.67953 h 1.133948 l -1.826371,-2.92014 c 0.408128,-0.19403 0.70911,-0.47848 0.903141,-0.85315 0.20072,-0.37468 0.300884,-0.78614 0.300884,-1.23441 0,-0.47503 -0.110476,-0.87979 -0.331268,-1.21431 -0.220792,-0.34123 -0.524882,-0.59884 -0.912941,-0.7728 -0.388059,-0.17396 -0.829956,-0.26118 -1.325064,-0.26118 z m 0.973217,0.93352 h 1.124148 c 0.321152,0 0.585472,0.0702 0.792881,0.21072 0.214102,0.13381 0.367946,0.30468 0.461617,0.51209 0.10036,0.20741 0.150443,0.41805 0.150443,0.63215 0,0.3546 -0.117186,0.66901 -0.351361,0.94332 -0.22748,0.27432 -0.601785,0.41163 -1.123656,0.41163 h -1.054072 z"
         id="rect830" />
    </g>
  </g>
</svg>
